<svg width="863" height="760" viewBox="0 0 863 760" fill="none" xmlns="http://www.w3.org/2000/svg">
<path d="M772.773 90.2125C753.054 70.4893 729.642 54.8435 703.874 44.1689C678.105 33.4943 650.486 28 622.593 28C594.7 28 567.08 33.4943 541.312 44.1689C515.544 54.8435 492.131 70.4893 472.413 90.2125L431.49 131.126L390.567 90.2125C350.736 50.3917 296.715 28.0206 240.387 28.0206C184.058 28.0206 130.037 50.3917 90.2066 90.2125C50.3764 130.033 28 184.042 28 240.357C28 296.672 50.3764 350.681 90.2066 390.502L131.13 431.415L431.49 731.704L731.85 431.415L772.773 390.502C792.501 370.788 808.15 347.381 818.827 321.619C829.504 295.856 835 268.243 835 240.357C835 212.471 829.504 184.858 818.827 159.095C808.15 133.333 792.501 109.926 772.773 90.2125Z" fill="white" stroke="black" stroke-width="55" stroke-linecap="round" stroke-linejoin="round"/>
</svg>
