<svg width="1053" height="1053" viewBox="0 0 1053 1053" fill="none" xmlns="http://www.w3.org/2000/svg">
<circle cx="526.5" cy="526.5" r="526.5" fill="#928FFF"/>
<path d="M551.679 930H501.244C499.497 929.579 497.749 928.99 495.981 928.737C477.563 926.044 458.976 924.276 440.768 920.635C284.347 889.341 154.806 754.925 129.315 597.76C126.831 582.545 125.084 567.182 123 551.903C123 535.088 123 518.294 123 501.479C123.463 499.206 123.989 496.933 124.347 494.639C127.547 474.204 129.294 453.412 134.093 433.355C194.169 182.203 471.479 48.2923 707.868 166.482C874.625 249.884 960.297 433.503 920.24 615.48C885.592 772.877 754.894 897.254 595.989 923.876C581.296 926.338 566.456 927.98 551.7 929.979L551.679 930ZM258.561 760.418C259.76 759.45 260.645 758.903 261.339 758.188C303.691 715.866 346.107 673.607 388.248 631.075C390.606 628.697 391.848 624.172 391.869 620.636C392.1 570.233 391.974 519.809 392.079 469.406C392.079 461.03 392.29 452.57 393.321 444.278C397.3 412.205 410.288 384.026 430.39 358.793C443.925 341.809 452.534 322.342 454.071 300.603C455.418 281.536 455.06 262.322 455.418 243.191C455.692 228.67 464.975 218.442 479.268 218.295C510.779 217.979 542.312 217.958 573.823 218.295C587.779 218.442 597.231 228.607 597.441 242.602C597.61 253.882 598.052 265.205 597.378 276.464C594.936 317.502 612.471 350.48 637.625 378.68C677.809 338.505 718.33 297.993 758.788 257.523C628.09 141.207 414.224 135.903 274.853 275.159C135.925 413.973 140.45 627.771 258.582 760.418H258.561ZM794.257 293.51C794.004 293.553 793.667 293.489 793.52 293.637C748.873 338.126 704.227 382.574 659.727 427.21C658.275 428.662 657.896 431.84 658.065 434.155C658.801 444.867 660.738 455.558 660.759 466.249C660.969 565.245 661.012 664.221 660.843 763.217C660.759 806.044 631.205 835.108 588.221 835.192C546.985 835.255 505.748 835.276 464.512 835.192C421.612 835.108 392.332 805.918 392.058 763.028C391.932 742.803 392.058 722.6 392.016 702.376C392.016 700.482 391.637 698.588 391.553 697.809C359.052 730.282 326.488 762.838 293.945 795.374C422.496 911.775 644.53 920.635 786.11 769.847C923.671 623.33 903.4 411.447 794.278 293.531L794.257 293.51ZM613.628 502.952C605.124 502.952 597.525 502.468 590.032 503.162C586.285 503.52 581.864 505.141 579.254 507.708C533.955 552.618 488.845 597.697 443.946 642.986C441.378 645.575 439.547 650.163 439.505 653.825C439.189 689.77 439.273 725.736 439.315 761.681C439.336 779.99 447.398 787.924 465.838 787.945C505.475 787.987 545.111 787.945 584.769 787.945C606.429 787.945 613.628 780.811 613.628 759.282C613.628 677.143 613.628 595.003 613.628 512.864V502.952ZM502.717 265.878C502.717 270.698 502.633 274.864 502.717 279.01C503.685 321.29 490.74 358.666 464.954 392.275C456.639 403.093 450.766 416.056 445.314 428.683C441.82 436.765 441.104 446.067 438.957 455.684C480.91 455.684 521.03 455.726 561.151 455.558C563.151 455.558 565.551 454.022 567.087 452.507C577.97 441.858 588.832 431.209 599.251 420.118C600.914 418.35 601.651 413.657 600.493 411.658C595.694 403.282 590.389 395.116 584.58 387.372C566.035 362.686 554.458 335.264 551.511 304.496C550.29 291.806 550.184 279.01 549.553 265.878H502.696H502.717ZM439.841 576.168C463.943 552.05 488.719 527.28 512.568 503.436H439.841V576.168Z" fill="black"/>
</svg>
