<svg width="1053" height="1053" viewBox="0 0 1053 1053" fill="none" xmlns="http://www.w3.org/2000/svg">
<circle cx="526.5" cy="526.5" r="526.5" fill="#59B0DC"/>
<path d="M551.693 930.092H501.256C499.509 929.671 497.762 929.081 495.994 928.829C477.574 926.134 458.987 924.366 440.778 920.724C284.331 889.422 154.66 754.847 129.294 597.768C126.852 582.527 125.084 567.181 123 551.899C123 535.08 123 518.281 123 501.462C125.189 485.4 126.789 469.213 129.652 453.256C173.311 208.776 432.526 61.3594 666.187 148.003C857.704 219.028 965.819 420.396 919.214 619.303C882.48 776.044 753.652 897.569 596.004 923.987C581.311 926.45 566.471 928.092 551.714 930.092H551.693ZM292.162 795.453C391.92 876.287 503.909 905.021 626.928 867.488C765.777 825.113 850.61 728.828 877.007 586.043C897.3 476.243 866.335 378.232 795.689 293.378C743.947 345.141 693.152 395.957 642.779 446.352C661.745 457.382 681.554 468.897 701.783 480.643C702.899 478.475 704.225 475.991 705.509 473.465C717.466 450.015 735.085 432.206 758.683 420.523C794.09 402.988 833.601 425.343 834.759 464.771C835.98 505.967 835.938 547.247 834.78 588.442C833.664 627.912 794.174 650.436 758.83 632.922C734.959 621.113 717.234 603.052 705.193 579.349C703.951 576.907 702.709 574.465 701.257 571.56C657.451 603.473 608.993 622.46 557.314 634.206C558.114 637.132 558.556 638.901 559.103 640.627C566.239 663.656 573.628 686.622 580.448 709.756C584.995 725.186 574.68 739.29 558.661 739.943C552.114 740.217 545.504 739.88 538.979 739.248C492.289 734.722 454.04 715.461 427.937 675.192C425.853 671.992 423.896 668.708 422.001 665.656C378.932 708.704 336.22 751.373 292.162 795.432V795.453ZM557.145 418.986C566.66 421.449 575.607 423.386 584.279 426.164C589.437 427.827 592.784 427.091 596.699 423.154C649.683 369.917 702.857 316.849 755.967 263.739C757.546 262.16 758.893 260.371 760.325 258.708C620.486 134.994 397.519 138.341 262.354 288.305C125.884 439.721 154.807 649.11 258.755 759.814C298.814 720.703 338.894 681.591 378.974 642.479C349.187 635.996 321.78 629.154 296.119 616.566C264.144 600.862 238.146 579.033 223.011 545.773C217.18 532.974 217.138 520.786 222.885 507.924C235.725 479.127 257.134 458.561 283.994 443.257C321.022 422.165 361.628 413.576 403.561 410.103C408.95 409.661 413.034 409.408 415.602 402.882C440.294 339.731 497.467 312.092 559.25 313.481C574.807 313.839 584.574 328.237 580.511 343.436C579.164 348.509 577.48 353.477 575.922 358.487C569.712 378.464 563.502 398.441 557.103 419.007L557.145 418.986ZM552.788 469.191C552.198 468.349 551.588 467.529 550.999 466.686C548.978 466.181 546.978 465.613 544.957 465.171C503.361 456.182 461.239 453.951 418.886 456.161C388.931 457.719 359.397 462.224 331.147 472.981C311.023 480.643 292.225 490.684 278.479 507.588C262.923 526.722 262.67 526.091 278.689 545.942C290.457 560.551 306.413 569.792 323.485 577.096C352.577 589.537 383.289 594.358 414.528 596.968C420.064 597.431 423.748 596.042 427.622 592.168C467.218 552.32 506.982 512.64 546.788 472.96C548.43 471.318 550.788 470.412 552.809 469.17L552.788 469.191ZM681.911 527.059C679.449 524.954 677.975 523.544 676.354 522.323C655.977 506.83 633.706 494.726 610.129 484.832C605.456 482.874 602.825 483.611 599.373 487.105C565.165 521.586 530.769 555.856 496.436 590.232C494.92 591.768 493.594 593.495 491.278 596.168C561.397 589.285 625.475 570.55 681.911 527.059ZM787.837 526.891C787.837 508.282 787.88 489.674 787.837 471.044C787.816 461.213 785.038 459.466 776.66 464.434C753.146 478.348 740.369 499.062 740.306 526.428C740.242 554.13 753.125 575.012 776.954 589.053C784.912 593.747 787.816 591.958 787.837 582.717C787.922 564.108 787.859 545.499 787.859 526.87L787.837 526.891ZM524.643 364.107C498.014 371.159 478.332 384.442 465.47 407.998C480.858 409.113 495.152 410.145 509.929 411.218C514.728 395.852 519.444 380.737 524.643 364.086V364.107ZM509.908 641.974C494.794 643.132 480.564 644.226 465.344 645.405C478.648 668.918 498.162 682.391 524.601 689.127C519.486 672.729 514.792 657.635 509.908 641.974V641.974Z" fill="black"/>
<path d="M384.152 503.062C396.93 503.062 407.75 514.345 407.708 527.649C407.666 539.437 396.277 550.278 383.921 550.299C371.038 550.32 360.534 539.248 360.555 525.691C360.597 513.671 371.627 503.083 384.131 503.062H384.152Z" fill="black"/>
</svg>
