<svg width="1053" height="1053" viewBox="0 0 1053 1053" fill="none" xmlns="http://www.w3.org/2000/svg">
<circle cx="526.5" cy="526.5" r="526.5" fill="#E6A400"/>
<path d="M551.716 930H501.276C499.255 929.558 497.255 928.863 495.213 928.695C452.226 925.495 410.544 916.274 371.156 898.779C238.321 839.748 157.23 738.95 129.168 596.067C126.305 581.457 125.021 566.552 123 551.773C123 534.952 123 518.152 123 501.331C123.484 498.784 124.01 496.258 124.41 493.689C127.4 474.279 129.063 454.532 133.547 435.458C186.45 211.019 411.407 76.831 633.985 137.651C819.26 188.282 947.97 365.922 927.95 567.225C919.403 653.077 886.289 728.823 828.986 793.391C766.568 863.748 688.783 907.432 596.008 923.874C581.335 926.463 566.494 927.979 551.716 930ZM257.941 293.397C135.989 430.806 137.02 653.014 286.824 789.496C434.227 923.79 642.89 902.169 759.284 794.844C727.833 763.37 696.382 731.897 664.447 699.918C631.691 726.255 592.051 734.065 550.137 735.181C550.137 738.95 550.137 741.813 550.137 744.697C550.137 766.234 550.179 787.749 550.137 809.286C550.095 824.633 540.432 835.306 526.664 835.391C512.876 835.496 502.981 824.801 502.876 809.601C502.792 798.044 502.876 786.486 502.876 774.949C502.876 761.876 502.876 748.823 502.876 736.318C485.993 734.087 469.741 732.95 453.931 729.666C397.744 717.981 360.778 685.266 346.042 628.888C339.81 605.035 338.042 580.846 338.947 556.32C339.726 535.331 344.8 528.805 364.714 524.026C361.22 516.994 357.431 510.11 354.315 502.952C341.116 472.447 337.347 440.279 339.158 407.459C339.663 398.406 342.715 389.522 344.694 380.091C316.885 352.28 287.602 323.018 257.962 293.397H257.941ZM292.865 259.124C294.823 261.166 296.718 263.271 298.718 265.271C332.505 299.081 366.841 332.344 399.786 366.933C411.491 379.227 425.827 375.775 439.027 380.659C439.027 364.112 436.774 348.849 439.448 334.47C448.142 287.481 476.667 252.576 512.202 222.724C521.254 215.124 532.685 215.419 541.864 223.503C588.745 264.808 623.291 312.007 614.197 379.88C615.734 379.796 617.27 379.88 618.702 379.585C641.459 374.722 664.426 373.48 687.604 375.122C704.024 376.28 712.634 384.196 713.687 400.722C715.287 425.711 714.845 450.742 707.771 474.932C702.803 491.858 695.835 508.215 689.835 524.615C705.519 527.415 713.581 534.447 713.476 550.404C713.35 572.362 712.466 594.467 709.371 616.172C707.161 631.73 700.803 646.677 696.951 659.687C730.107 692.992 762.968 725.981 795.767 758.928C917.487 621.309 915.403 399.459 766.147 263.524C617.228 127.904 407.933 152.388 292.865 259.124ZM386.398 422.49C385.113 497.268 423.112 540.51 501.697 536.91C503.739 462.574 464.583 419.943 386.398 422.49ZM526.854 437.774C549.59 412.974 569.967 387.354 568.347 352.091C566.852 319.881 547.926 296.028 526.812 273.523C470.878 330.428 470.604 380.722 526.854 437.774ZM666.51 422.343C590.472 420.364 549.19 459.774 551.484 537.036C630.238 540.531 668.11 496.468 666.51 422.343ZM386.924 572.067C384.44 649.077 425.111 689.455 501.718 686.613C502.539 609.73 465.173 570.846 386.924 572.067ZM551.042 687.729C584.661 686.487 617.039 682.677 640.869 656.593C662.616 632.761 666.279 602.635 666.994 571.752C586.914 571.941 551.379 608.93 551.063 687.729H551.042Z" fill="black"/>
</svg>
