<svg width="512" height="512" viewBox="0 0 512 512" fill="none" xmlns="http://www.w3.org/2000/svg">
<path d="M502.614 457.498L403.517 358.36C477.666 259.271 457.448 118.834 358.36 44.6852C259.271 -29.4635 118.834 -9.24561 44.6852 89.8429C-29.4635 188.931 -9.24561 329.369 89.8429 403.517C169.439 463.08 278.763 463.08 358.36 403.517L457.498 502.656C469.956 515.114 490.155 515.114 502.613 502.656C515.071 490.197 515.071 469.998 502.613 457.541L502.614 457.498ZM224.927 384.383C136.862 384.383 65.4722 312.993 65.4722 224.927C65.4722 136.862 136.862 65.4722 224.927 65.4722C312.993 65.4722 384.383 136.862 384.383 224.927C384.289 312.953 312.954 384.289 224.927 384.383Z" fill="white"/>
</svg>
