<svg width="513" height="513" viewBox="0 0 513 513" fill="none" xmlns="http://www.w3.org/2000/svg">
<path d="M405.441 21.38C384.897 21.3049 364.78 27.237 347.563 38.4467C335.645 26.2747 321.416 16.6044 305.712 10.0025C290.007 3.4006 273.143 0 256.107 0C239.072 0 222.208 3.4006 206.503 10.0025C190.799 16.6044 176.57 26.2747 164.651 38.4467C147.435 27.237 127.318 21.3049 106.774 21.38C80.3218 21.3534 54.8033 31.1567 35.1723 48.8866C15.5414 66.6166 3.1987 91.0084 0.540275 117.327C-2.11815 143.645 5.09738 170.012 20.7861 191.31C36.4749 212.608 59.5175 227.316 85.4408 232.58V512.047H426.774V232.58C452.697 227.316 475.74 212.608 491.429 191.31C507.118 170.012 514.333 143.645 511.675 117.327C509.016 91.0084 496.673 66.6166 477.043 48.8866C457.412 31.1567 431.893 21.3534 405.441 21.38ZM384.107 469.38H128.107V405.38H384.107V469.38ZM405.441 192.047H384.107V362.713H128.107V192.047H106.774C89.8003 192.047 73.5216 185.304 61.5193 173.302C49.517 161.299 42.7741 145.021 42.7741 128.047C42.7741 111.073 49.517 94.7942 61.5193 82.7918C73.5216 70.7895 89.8003 64.0467 106.774 64.0467C115.283 64.0199 123.71 65.706 131.553 69.0046C139.396 72.3032 146.495 77.1467 152.427 83.2467L170.774 101.956L185.409 80.3453C193.219 68.756 203.757 59.2625 216.096 52.699C228.434 46.1355 242.196 42.7029 256.171 42.7029C270.147 42.7029 283.909 46.1355 296.247 52.699C308.586 59.2625 319.123 68.756 326.934 80.3453L341.441 101.956L359.787 83.2467C365.719 77.1467 372.819 72.3032 380.662 69.0046C388.505 65.706 396.932 64.0199 405.441 64.0467C422.415 64.0467 438.693 70.7895 450.696 82.7918C462.698 94.7942 469.441 111.073 469.441 128.047C469.441 145.021 462.698 161.299 450.696 173.302C438.693 185.304 422.415 192.047 405.441 192.047Z" fill="white"/>
</svg>
